<mxfile host="drawio-plugin" modified="2022-05-26T14:55:36.090Z" agent="5.0 (X11; Linux x86_64) AppleWebKit/537.36 (KHTML, like Gecko) Chrome/97.0.4692.45 Safari/537.36" etag="9RTsC0yAyk1A_rXGJ2WT" version="15.5.4" type="embed"><diagram id="ZRwtlpLLrEsCe3JZlwld" name="Page-1"><mxGraphModel dx="856" dy="1749" grid="1" gridSize="10" guides="1" tooltips="1" connect="1" arrows="1" fold="1" page="1" pageScale="1" pageWidth="850" pageHeight="1100" background="none" math="0" shadow="0"><root><mxCell id="0"/><mxCell id="1" parent="0"/><mxCell id="2" value="Router" style="html=1;" parent="1" vertex="1"><mxGeometry x="140" y="364" width="110" height="50" as="geometry"/></mxCell><mxCell id="3" value="RouterType" style="html=1;" parent="1" vertex="1"><mxGeometry x="380" y="365" width="110" height="50" as="geometry"/></mxCell><mxCell id="5" value="" style="endArrow=none;html=1;edgeStyle=orthogonalEdgeStyle;rounded=0;entryX=0;entryY=0.5;entryDx=0;entryDy=0;" parent="1" target="3" edge="1"><mxGeometry relative="1" as="geometry"><mxPoint x="250" y="390" as="sourcePoint"/><mxPoint x="410" y="390" as="targetPoint"/></mxGeometry></mxCell><mxCell id="8" value="RouterId" style="rounded=0;whiteSpace=wrap;html=1;" parent="1" vertex="1"><mxGeometry x="152.5" y="480" width="85" height="30" as="geometry"/></mxCell><mxCell id="10" value="" style="endArrow=none;html=1;edgeStyle=orthogonalEdgeStyle;rounded=0;entryX=0.5;entryY=0;entryDx=0;entryDy=0;exitX=0.5;exitY=1;exitDx=0;exitDy=0;" parent="1" source="2" target="8" edge="1"><mxGeometry relative="1" as="geometry"><mxPoint x="180" y="431" as="sourcePoint"/><mxPoint x="310" y="430" as="targetPoint"/></mxGeometry></mxCell><mxCell id="11" value="VALUE OBJECT" style="text;html=1;strokeColor=none;fillColor=none;align=center;verticalAlign=middle;whiteSpace=wrap;rounded=0;fontSize=8;rotation=0;" parent="1" vertex="1"><mxGeometry x="142" y="463" width="80" height="20" as="geometry"/></mxCell><mxCell id="12" value="ENTITY" style="text;html=1;strokeColor=none;fillColor=none;align=center;verticalAlign=middle;whiteSpace=wrap;rounded=0;fontSize=8;rotation=0;" parent="1" vertex="1"><mxGeometry x="130" y="346" width="50" height="20" as="geometry"/></mxCell><mxCell id="13" value="ENUM" style="text;html=1;strokeColor=none;fillColor=none;align=center;verticalAlign=middle;whiteSpace=wrap;rounded=0;fontSize=8;rotation=0;" parent="1" vertex="1"><mxGeometry x="370" y="346" width="50" height="20" as="geometry"/></mxCell></root></mxGraphModel></diagram></mxfile>